{
	"asset":{
		"generator":"Khronos glTF Blender I/O v4.0.44",
		"version":"2.0"
	},
	"scene":0,
	"scenes":[
		{
			"name":"Scene",
			"nodes":[
				3
			]
		}
	],
	"nodes":[
		{
			"mesh":0,
			"name":"Curve.001"
		},
		{
			"mesh":1,
			"name":"Curve.002"
		},
		{
			"mesh":2,
			"name":"Curve.003"
		},
		{
			"children":[
				0,
				1,
				2
			],
			"mesh":3,
			"name":"Curve",
			"scale":[
				80,
				1,
				80
			],
			"translation":[
				-5.277481555938721,
				0.1185644268989563,
				4.798073768615723
			]
		}
	],
	"materials":[
		{
			"doubleSided":true,
			"name":"SVGMat.001",
			"pbrMetallicRoughness":{
				"baseColorFactor":[
					0.3712235689163208,
					0.0021516960114240646,
					1,
					1
				],
				"metallicFactor":0.5942029356956482,
				"roughnessFactor":0.2246376872062683
			}
		}
	],
	"meshes":[
		{
			"name":"Curve.001",
			"primitives":[
				{
					"attributes":{
						"POSITION":0,
						"NORMAL":1,
						"TEXCOORD_0":2
					},
					"indices":3,
					"material":0
				}
			]
		},
		{
			"name":"Curve.002",
			"primitives":[
				{
					"attributes":{
						"POSITION":4,
						"NORMAL":5,
						"TEXCOORD_0":6
					},
					"indices":7,
					"material":0
				}
			]
		},
		{
			"name":"Curve.003",
			"primitives":[
				{
					"attributes":{
						"POSITION":8,
						"NORMAL":9,
						"TEXCOORD_0":10
					},
					"indices":11,
					"material":0
				}
			]
		},
		{
			"name":"Curve",
			"primitives":[
				{
					"attributes":{
						"POSITION":12,
						"NORMAL":13,
						"TEXCOORD_0":14
					},
					"indices":15,
					"material":0
				}
			]
		}
	],
	"accessors":[
		{
			"bufferView":0,
			"componentType":5126,
			"count":6454,
			"max":[
				0.08697813749313354,
				0.25,
				-0.03602558746933937
			],
			"min":[
				0.06506489962339401,
				-0.25,
				-0.09319686144590378
			],
			"type":"VEC3"
		},
		{
			"bufferView":1,
			"componentType":5126,
			"count":6454,
			"type":"VEC3"
		},
		{
			"bufferView":2,
			"componentType":5126,
			"count":6454,
			"type":"VEC2"
		},
		{
			"bufferView":3,
			"componentType":5123,
			"count":19344,
			"type":"SCALAR"
		},
		{
			"bufferView":4,
			"componentType":5126,
			"count":8106,
			"max":[
				0.044056955724954605,
				0.2799999713897705,
				-0.028245244175195694
			],
			"min":[
				0.010494756512343884,
				-0.2799999713897705,
				-0.08547055721282959
			],
			"type":"VEC3"
		},
		{
			"bufferView":5,
			"componentType":5126,
			"count":8106,
			"type":"VEC3"
		},
		{
			"bufferView":6,
			"componentType":5126,
			"count":8106,
			"type":"VEC2"
		},
		{
			"bufferView":7,
			"componentType":5123,
			"count":22368,
			"type":"SCALAR"
		},
		{
			"bufferView":8,
			"componentType":5126,
			"count":7482,
			"max":[
				0.1139082983136177,
				0.2799999713897705,
				-0.028278887271881104
			],
			"min":[
				0.07892759889364243,
				-0.2799999713897705,
				-0.08506838977336884
			],
			"type":"VEC3"
		},
		{
			"bufferView":9,
			"componentType":5126,
			"count":7482,
			"type":"VEC3"
		},
		{
			"bufferView":10,
			"componentType":5126,
			"count":7482,
			"type":"VEC2"
		},
		{
			"bufferView":11,
			"componentType":5123,
			"count":20964,
			"type":"SCALAR"
		},
		{
			"bufferView":12,
			"componentType":5126,
			"count":9934,
			"max":[
				0.06530565023422241,
				0.2500000298023224,
				-0.03515762835741043
			],
			"min":[
				0.03662917762994766,
				-0.2500000298023224,
				-0.09593428671360016
			],
			"type":"VEC3"
		},
		{
			"bufferView":13,
			"componentType":5126,
			"count":9934,
			"type":"VEC3"
		},
		{
			"bufferView":14,
			"componentType":5126,
			"count":9934,
			"type":"VEC2"
		},
		{
			"bufferView":15,
			"componentType":5123,
			"count":28620,
			"type":"SCALAR"
		}
	],
	"bufferViews":[
		{
			"buffer":0,
			"byteLength":77448,
			"byteOffset":0,
			"target":34962
		},
		{
			"buffer":0,
			"byteLength":77448,
			"byteOffset":77448,
			"target":34962
		},
		{
			"buffer":0,
			"byteLength":51632,
			"byteOffset":154896,
			"target":34962
		},
		{
			"buffer":0,
			"byteLength":38688,
			"byteOffset":206528,
			"target":34963
		},
		{
			"buffer":0,
			"byteLength":97272,
			"byteOffset":245216,
			"target":34962
		},
		{
			"buffer":0,
			"byteLength":97272,
			"byteOffset":342488,
			"target":34962
		},
		{
			"buffer":0,
			"byteLength":64848,
			"byteOffset":439760,
			"target":34962
		},
		{
			"buffer":0,
			"byteLength":44736,
			"byteOffset":504608,
			"target":34963
		},
		{
			"buffer":0,
			"byteLength":89784,
			"byteOffset":549344,
			"target":34962
		},
		{
			"buffer":0,
			"byteLength":89784,
			"byteOffset":639128,
			"target":34962
		},
		{
			"buffer":0,
			"byteLength":59856,
			"byteOffset":728912,
			"target":34962
		},
		{
			"buffer":0,
			"byteLength":41928,
			"byteOffset":788768,
			"target":34963
		},
		{
			"buffer":0,
			"byteLength":119208,
			"byteOffset":830696,
			"target":34962
		},
		{
			"buffer":0,
			"byteLength":119208,
			"byteOffset":949904,
			"target":34962
		},
		{
			"buffer":0,
			"byteLength":79472,
			"byteOffset":1069112,
			"target":34962
		},
		{
			"buffer":0,
			"byteLength":57240,
			"byteOffset":1148584,
			"target":34963
		}
	],
	"buffers":[
		{
			"byteLength":1205824,
			"uri":"dmnd2.bin"
		}
	]
}
