{
	"asset":{
		"generator":"Khronos glTF Blender I/O v4.0.44",
		"version":"2.0"
	},
	"scene":0,
	"scenes":[
		{
			"name":"Scene",
			"nodes":[
				0
			]
		}
	],
	"nodes":[
		{
			"mesh":0,
			"name":"Curve.008",
			"scale":[
				20,
				20,
				20
			],
			"translation":[
				-0.6169657707214355,
				0.027483195066452026,
				0.4033096432685852
			]
		}
	],
	"materials":[
		{
			"doubleSided":true,
			"name":"SVGMat.005",
			"pbrMetallicRoughness":{
				"baseColorFactor":[
					0.800000011920929,
					0.800000011920929,
					0.800000011920929,
					1
				],
				"roughnessFactor":0.5
			}
		}
	],
	"meshes":[
		{
			"name":"Curve.008",
			"primitives":[
				{
					"attributes":{
						"POSITION":0,
						"NORMAL":1,
						"TEXCOORD_0":2
					},
					"indices":3,
					"material":0
				}
			]
		}
	],
	"accessors":[
		{
			"bufferView":0,
			"componentType":5126,
			"count":1270,
			"max":[
				0.07004308700561523,
				0,
				-0.020771760493516922
			],
			"min":[
				0.0012585478834807873,
				0,
				-0.033097948879003525
			],
			"type":"VEC3"
		},
		{
			"bufferView":1,
			"componentType":5126,
			"count":1270,
			"type":"VEC3"
		},
		{
			"bufferView":2,
			"componentType":5126,
			"count":1270,
			"type":"VEC2"
		},
		{
			"bufferView":3,
			"componentType":5123,
			"count":3738,
			"type":"SCALAR"
		}
	],
	"bufferViews":[
		{
			"buffer":0,
			"byteLength":15240,
			"byteOffset":0,
			"target":34962
		},
		{
			"buffer":0,
			"byteLength":15240,
			"byteOffset":15240,
			"target":34962
		},
		{
			"buffer":0,
			"byteLength":10160,
			"byteOffset":30480,
			"target":34962
		},
		{
			"buffer":0,
			"byteLength":7476,
			"byteOffset":40640,
			"target":34963
		}
	],
	"buffers":[
		{
			"byteLength":48116,
			"uri":"ocram.bin"
		}
	]
}
